<svg width="18" height="18" viewBox="0 0 512 512" fill="none" xmlns="http://www.w3.org/2000/svg">
<g clip-path="url(#clip0_3_2)">
<mask id="mask0_3_2" style="mask-type:luminance" maskUnits="userSpaceOnUse" x="0" y="0" width="512" height="512">
<path d="M347.206 0H164.795C73.781 0 0 73.781 0 164.795V347.205C0 438.219 73.781 512 164.795 512H347.206C438.219 512 512 438.219 512 347.205V164.795C512 73.781 438.219 0 347.206 0Z" fill="white"/>
</mask>
<g mask="url(#mask0_3_2)">
<path d="M87.1419 -192.318L-192.34 424.941L424.919 704.422L704.401 87.1635L87.1419 -192.318Z" fill="url(#paint0_linear_3_2)"/>
</g>
<path d="M344.785 203.854C342.14 205.374 340.001 206.556 337.919 207.738C310.341 223.666 282.706 239.594 255.071 255.409C252.764 256.703 251.92 258.167 251.92 260.868C252.032 293.793 251.92 326.775 252.088 359.756C252.088 361.67 253.101 363.977 254.396 365.497C258.054 369.718 261.994 373.658 265.934 377.598C270.887 382.663 269.986 389.023 263.683 392.344C245.616 401.799 227.268 402.306 209.426 392.344C180.61 376.191 151.962 359.756 123.596 342.815C105.586 332.065 96.918 315.35 96.7492 294.469C96.5241 262.669 96.4678 230.926 96.7492 199.127C96.918 176.951 107.049 160.236 126.297 149.148C153.088 133.67 179.934 118.193 206.725 102.715C226.198 91.4586 245.897 91.2335 265.427 102.321C292.893 117.968 320.246 133.783 347.543 149.711C366.229 160.63 375.684 177.233 376.191 198.676C376.585 214.998 376.36 231.376 376.247 247.698C376.247 256.084 370.394 259.743 362.571 256.647C359.588 255.465 356.436 254.508 353.284 253.833C347.543 252.595 344.729 249.556 344.673 243.646C344.616 231.939 344.673 220.289 344.673 208.638V203.911L344.785 203.854ZM142.844 175.882C143.801 176.557 144.364 177.008 144.983 177.402C174.588 194.512 204.192 211.565 233.797 228.731C235.935 229.969 237.455 229.688 239.425 228.562C268.467 211.734 297.508 194.962 326.55 178.19C327.675 177.514 328.745 176.783 330.208 175.826C303.249 160.236 276.853 145.096 250.512 129.787C240.832 124.159 231.545 124.327 221.921 130.012C196.875 144.645 171.717 159.054 146.615 173.574C145.433 174.25 144.308 175.038 142.788 175.938M128.211 203.911C128.155 205.543 128.042 206.556 128.042 207.569C128.042 236.386 128.042 265.146 128.042 293.962C128.042 304.6 132.714 312.198 141.831 317.432C166.99 331.897 192.091 346.417 217.193 360.938C218.263 361.557 219.388 362.064 220.683 362.739C220.739 361.839 220.852 361.332 220.852 360.826C220.852 327.225 220.852 293.625 220.908 260.08C220.908 257.885 220.007 256.929 218.263 255.916C204.755 248.205 191.36 240.382 177.852 232.615C161.474 223.159 145.152 213.704 128.211 203.967" fill="white"/>
<path d="M349.176 417.952C347.487 415.87 346.136 414.744 345.517 413.281C342.084 405.064 338.707 396.79 335.555 388.404C331.109 376.641 323.117 368.593 311.466 364.09C303.249 360.938 295.088 357.674 286.984 354.241C285.408 353.565 284.282 351.877 282.988 350.639C284.282 349.4 285.295 347.599 286.815 346.98C295.37 343.322 304.093 340.001 312.705 336.512C323.567 332.178 330.94 324.411 335.218 313.661C338.651 305.106 341.915 296.551 345.461 288.109C346.08 286.646 347.768 285.689 348.95 284.507C350.132 285.745 351.821 286.702 352.44 288.165C355.929 296.383 359.194 304.712 362.402 313.042C366.904 324.749 374.953 332.741 386.66 337.187C394.877 340.339 403.094 343.547 411.199 346.924C412.775 347.599 413.9 349.288 415.251 350.526C413.956 351.764 412.831 353.565 411.311 354.184C403.094 357.674 394.764 360.938 386.434 364.146C374.84 368.536 366.904 376.529 362.458 388.066C359.194 396.509 355.817 404.951 352.384 413.281C351.821 414.688 350.639 415.814 349.119 417.896" fill="white"/>
<g opacity="0.27">
<mask id="mask1_3_2" style="mask-type:luminance" maskUnits="userSpaceOnUse" x="142" y="125" width="189" height="105">
<path d="M330.265 125.566H142.844V229.519H330.265V125.566Z" fill="white"/>
</mask>
<g mask="url(#mask1_3_2)">
<path d="M142.844 175.826C144.308 174.926 145.49 174.138 146.672 173.462C171.774 158.941 196.988 144.533 222.034 129.9C231.658 124.271 240.944 124.046 250.625 129.675C276.909 144.983 303.305 160.123 330.321 175.714C328.857 176.67 327.788 177.458 326.662 178.077C297.621 194.849 268.523 211.622 239.537 228.45C237.568 229.632 236.048 229.913 233.909 228.619C204.361 211.453 174.7 194.399 145.096 177.289C144.477 176.895 143.858 176.445 142.957 175.77" fill="white"/>
</g>
</g>
<g opacity="0.27">
<mask id="mask2_3_2" style="mask-type:luminance" maskUnits="userSpaceOnUse" x="128" y="203" width="94" height="160">
<path d="M221.021 203.798H128.155V362.627H221.021V203.798Z" fill="white"/>
</mask>
<g mask="url(#mask2_3_2)">
<path d="M128.324 203.798C145.265 213.591 161.643 223.047 177.965 232.446C191.416 240.213 204.868 248.036 218.375 255.747C220.064 256.703 221.021 257.66 221.021 259.912C220.908 293.512 220.964 327.113 220.964 360.657C220.964 361.163 220.908 361.67 220.795 362.57C219.501 361.895 218.375 361.388 217.306 360.769C192.204 346.305 167.102 331.728 141.944 317.263C132.826 312.029 128.155 304.375 128.155 293.793C128.211 264.977 128.155 236.217 128.155 207.4C128.155 206.387 128.267 205.374 128.324 203.742" fill="white"/>
</g>
</g>
</g>
<defs>
<linearGradient id="paint0_linear_3_2" x1="235.693" y1="640.28" x2="600.906" y2="-166.325" gradientUnits="userSpaceOnUse">
<stop stop-color="#00ADEE"/>
<stop offset="1" stop-color="#262261"/>
</linearGradient>
<clipPath id="clip0_3_2">
<rect width="512" height="512" fill="white"/>
</clipPath>
</defs>
</svg>
